<svg xmlns="http://www.w3.org/2000/svg" viewBox="0 0 64 64" role="img" aria-label="BMT coin balance">
  <defs>
    <linearGradient id="coinFace" x1="18" y1="10" x2="46" y2="54" gradientUnits="userSpaceOnUse">
      <stop offset="0" stop-color="#ffe684"/>
      <stop offset="0.48" stop-color="#f4bd2c"/>
      <stop offset="1" stop-color="#c57a13"/>
    </linearGradient>
    <linearGradient id="coinEdge" x1="16" y1="9" x2="49" y2="52" gradientUnits="userSpaceOnUse">
      <stop offset="0" stop-color="#fff0a6"/>
      <stop offset="1" stop-color="#9b5710"/>
    </linearGradient>
  </defs>

  <ellipse cx="39" cy="43" rx="18" ry="8" fill="#8c4a0d" opacity=".32"/>

  <g stroke-linecap="round" stroke-linejoin="round">
    <path d="M12 35c0-5.2 9.2-9.5 20.5-9.5S53 29.8 53 35v8.5C53 48.7 43.8 53 32.5 53S12 48.7 12 43.5V35Z" fill="#d88918" stroke="#7b430d" stroke-width="3"/>
    <ellipse cx="32.5" cy="35" rx="20.5" ry="9.5" fill="url(#coinFace)" stroke="#7b430d" stroke-width="3"/>
    <path d="M17.5 35c2.1 2.7 7.8 4.7 15 4.7s12.9-2 15-4.7" fill="none" stroke="#fff0a6" stroke-width="2.4" opacity=".75"/>

    <path d="M7 25.5c0-5 8.9-9 19.8-9s19.7 4 19.7 9v8.2c0 5-8.8 9-19.7 9S7 38.7 7 33.7v-8.2Z" fill="#c97812" stroke="#7b430d" stroke-width="3"/>
    <ellipse cx="26.8" cy="25.5" rx="19.8" ry="9" fill="url(#coinFace)" stroke="#7b430d" stroke-width="3"/>
    <path d="M12.5 25.5c2 2.5 7.4 4.3 14.3 4.3s12.3-1.8 14.3-4.3" fill="none" stroke="#fff0a6" stroke-width="2.3" opacity=".75"/>

    <path d="M18 14c0-5.1 8.8-9.2 19.5-9.2S57 8.9 57 14v8.2c0 5.1-8.8 9.2-19.5 9.2S18 27.3 18 22.2V14Z" fill="#d88b16" stroke="#7b430d" stroke-width="3"/>
    <ellipse cx="37.5" cy="14" rx="19.5" ry="9.2" fill="url(#coinFace)" stroke="#7b430d" stroke-width="3"/>
    <path d="M23.5 14c1.9 2.6 7.2 4.5 14 4.5s12.1-1.9 14-4.5" fill="none" stroke="#fff0a6" stroke-width="2.4" opacity=".78"/>
  </g>

  <path d="M27 12.5h21" fill="none" stroke="#fff6bd" stroke-width="2.4" stroke-linecap="round" opacity=".85"/>
  <path d="M16.5 24h20" fill="none" stroke="#fff6bd" stroke-width="2.2" stroke-linecap="round" opacity=".75"/>
  <path d="M21 33.6h21" fill="none" stroke="#fff6bd" stroke-width="2.2" stroke-linecap="round" opacity=".72"/>
</svg>
